<svg xmlns="http://www.w3.org/2000/svg" viewBox="0 0 320 240" fill="none">
  <defs>
    <linearGradient id="g1" x1="0" y1="0" x2="1" y2="1">
      <stop offset="0%" stop-color="#6366f1" stop-opacity="0.15"/>
      <stop offset="100%" stop-color="#8b5cf6" stop-opacity="0.05"/>
    </linearGradient>
  </defs>
  <rect width="320" height="240" rx="16" fill="url(#g1)"/>
  <!-- Desk/workspace -->
  <rect x="60" y="160" width="200" height="8" rx="4" fill="#6366f1" opacity="0.2"/>
  <rect x="80" y="170" width="160" height="6" rx="3" fill="#6366f1" opacity="0.1"/>
  <!-- Laptop screen -->
  <rect x="100" y="60" width="120" height="80" rx="6" fill="#6366f1" opacity="0.12"/>
  <rect x="106" y="66" width="108" height="68" rx="3" fill="#6366f1" opacity="0.06"/>
  <!-- Screen content - waveform -->
  <path d="M120 100 L128 85 L136 95 L144 70 L152 90 L160 75 L168 88 L176 65 L184 85 L192 72 L200 90" stroke="#6366f1" stroke-width="2" fill="none" opacity="0.5" stroke-linecap="round"/>
  <!-- Person silhouette -->
  <circle cx="160" cy="40" r="10" fill="#6366f1" opacity="0.15"/>
  <rect x="148" y="52" width="24" height="8" rx="4" fill="#6366f1" opacity="0.1"/>
  <!-- Mic icon -->
  <rect x="148" y="120" width="10" height="14" rx="5" fill="#6366f1" opacity="0.2"/>
  <rect x="152" y="134" width="2" height="6" rx="1" fill="#6366f1" opacity="0.15"/>
  <!-- Floating elements -->
  <circle cx="105" cy="190" r="3" fill="#6366f1" opacity="0.1"/>
  <circle cx="215" cy="185" r="2" fill="#6366f1" opacity="0.08"/>
  <circle cx="180" cy="200" r="4" fill="#6366f1" opacity="0.06"/>
</svg>
