<svg xmlns="http://www.w3.org/2000/svg" viewBox="0 0 320 240" fill="none">
  <defs>
    <linearGradient id="rg" x1="0" y1="0" x2="1" y2="1">
      <stop offset="0%" stop-color="#10b981" stop-opacity="0.12"/>
      <stop offset="100%" stop-color="#6366f1" stop-opacity="0.06"/>
    </linearGradient>
  </defs>
  <rect width="320" height="240" rx="16" fill="url(#rg)"/>
  <!-- Document pages stacked -->
  <rect x="90" y="30" width="140" height="170" rx="8" fill="#10b981" opacity="0.08"/>
  <rect x="95" y="35" width="130" height="160" rx="6" fill="white" opacity="0.9"/>
  <rect x="95" y="35" width="130" height="30" rx="6" fill="#10b981" opacity="0.15"/>
  <!-- Document lines -->
  <rect x="110" y="80" width="90" height="6" rx="3" fill="#6366f1" opacity="0.15"/>
  <rect x="110" y="95" width="70" height="5" rx="2.5" fill="#6366f1" opacity="0.1"/>
  <rect x="110" y="110" width="100" height="5" rx="2.5" fill="#6366f1" opacity="0.08"/>
  <rect x="110" y="125" width="60" height="5" rx="2.5" fill="#6366f1" opacity="0.1"/>
  <rect x="110" y="140" width="90" height="5" rx="2.5" fill="#6366f1" opacity="0.07"/>
  <!-- Person silhouette -->
  <circle cx="235" cy="195" r="18" fill="#6366f1" opacity="0.08"/>
  <rect x="220" y="215" width="30" height="12" rx="6" fill="#6366f1" opacity="0.06"/>
  <!-- Upload arrow -->
  <circle cx="210" cy="55" r="14" fill="#10b981" opacity="0.15"/>
  <path d="M210 48 L210 62 M205 53 L210 48 L215 53" stroke="#10b981" stroke-width="2" fill="none" stroke-linecap="round" stroke-linejoin="round" opacity="0.6"/>
</svg>
